<svg width="813" height="1014" viewBox="0 0 813 1014" fill="none" xmlns="http://www.w3.org/2000/svg">
<g clip-path="url(#clip0_101_4)">
<path fill-rule="evenodd" clip-rule="evenodd" d="M43.9849 919.213C38.8298 918.034 34.1495 915.072 31.1991 910.61C25.3002 901.692 28.4197 889.942 38.1081 884.585C40.0003 883.539 42.0125 882.809 44.0684 882.378" fill="white"/>
<path d="M43.9849 919.213C38.8298 918.034 34.1495 915.072 31.1991 910.61C25.3002 901.691 28.4197 889.942 38.1081 884.585C40.0003 883.539 42.0125 882.809 44.0684 882.378" stroke="#C8C8C8" stroke-width="2.8125" stroke-miterlimit="14.3"/>
<path fill-rule="evenodd" clip-rule="evenodd" d="M121.628 857.446C117.4 858.235 113.863 860.464 111.417 863.514L110.176 860.667C102.16 849.898 86.9182 843.932 71.6367 846.788C51.9191 850.469 39.113 867.532 43.2676 884.581" fill="white"/>
<path d="M121.628 857.446C117.4 858.235 113.863 860.464 111.417 863.514L110.176 860.667C102.16 849.898 86.9182 843.932 71.6367 846.788C51.9191 850.469 39.113 867.532 43.2676 884.581" stroke="#C8C8C8" stroke-width="2.8125" stroke-miterlimit="14.3"/>
<path fill-rule="evenodd" clip-rule="evenodd" d="M100.409 863.192C103.294 854.599 113.223 849.862 122.401 852.704C131.578 855.545 136.759 864.953 133.873 873.548" fill="white"/>
<path d="M100.409 863.192C103.294 854.599 113.223 849.862 122.401 852.704C131.578 855.545 136.759 864.953 133.873 873.548" stroke="#C8C8C8" stroke-width="2.8125" stroke-miterlimit="14.3"/>
<path fill-rule="evenodd" clip-rule="evenodd" d="M44.5558 919.316C39.4007 918.137 34.7174 915.175 31.767 910.713C25.8681 901.794 28.9881 890.041 38.6765 884.685C44.7325 881.338 52.0143 881.228 58.0634 883.795" fill="white"/>
<path d="M44.5558 919.316C39.4007 918.137 34.7174 915.175 31.767 910.713C25.8681 901.794 28.9881 890.041 38.6765 884.685C44.7325 881.338 52.0143 881.228 58.0634 883.795" stroke="#C8C8C8" stroke-width="0.9375" stroke-miterlimit="11.5"/>
<path fill-rule="evenodd" clip-rule="evenodd" d="M122.655 857.613C118.424 858.402 114.89 860.631 112.441 863.681L111.203 860.834C103.187 850.065 87.9447 844.099 72.6631 846.956C52.9451 850.639 40.1395 867.699 44.2941 884.748" fill="white"/>
<path d="M122.655 857.613C118.424 858.402 114.89 860.631 112.441 863.681L111.203 860.834C103.187 850.065 87.9447 844.099 72.6631 846.956C52.9451 850.639 40.1395 867.699 44.2941 884.748" stroke="#C8C8C8" stroke-width="0.9375" stroke-miterlimit="11.5"/>
<path fill-rule="evenodd" clip-rule="evenodd" d="M101.436 863.359C104.321 854.766 114.251 850.03 123.428 852.871C132.607 855.712 137.788 865.121 134.903 873.716" fill="white"/>
<path d="M101.436 863.359C104.321 854.766 114.251 850.03 123.428 852.871C132.607 855.712 137.788 865.121 134.903 873.716" stroke="#C8C8C8" stroke-width="0.9375" stroke-miterlimit="11.5"/>
<path fill-rule="evenodd" clip-rule="evenodd" d="M67.1879 902.525L46.5308 899.162L49.2726 869.303L115.222 861.452L125.077 905.122" fill="white"/>
<path fill-rule="evenodd" clip-rule="evenodd" d="M84.4397 868.434C87.4881 862.032 95.9365 859.302 103.154 862.39C110.371 865.478 113.801 873.288 110.753 879.69" fill="white"/>
<path d="M84.4397 868.434C87.4881 862.032 95.9365 859.302 103.154 862.39C110.371 865.478 113.801 873.288 110.753 879.69" stroke="#C8C8C8" stroke-width="0.9375" stroke-miterlimit="11.5"/>
<path fill-rule="evenodd" clip-rule="evenodd" d="M423.8 815.899C433.545 798.782 455.761 796.792 470.882 803.403C488.813 811.246 497.067 831.045 489.161 847.261C488.546 848.523 487.847 849.728 487.079 850.878" fill="white"/>
<path d="M423.8 815.899C433.545 798.782 455.761 796.792 470.882 803.403C488.813 811.246 497.067 831.045 489.161 847.261C488.546 848.523 487.847 849.728 487.079 850.878" stroke="#C8C8C8" stroke-width="2.8125" stroke-miterlimit="14.3"/>
<path fill-rule="evenodd" clip-rule="evenodd" d="M276.152 806.685C274.78 801.059 268.947 797.311 263.226 798.377C260.724 798.845 258.631 800.161 257.185 801.966L256.452 800.283C251.709 793.913 242.692 790.384 233.651 792.072C221.987 794.252 214.41 804.347 216.867 814.431" fill="white"/>
<path d="M276.152 806.685C274.78 801.059 268.947 797.311 263.226 798.377C260.724 798.845 258.631 800.161 257.185 801.966L256.452 800.283C251.709 793.913 242.692 790.384 233.651 792.072C221.987 794.252 214.41 804.347 216.867 814.431" stroke="#C8C8C8" stroke-width="2.8125" stroke-miterlimit="14.3"/>
<path fill-rule="evenodd" clip-rule="evenodd" d="M176.561 838.659C178.692 824.294 191.292 812.568 207.726 811.085C213.785 810.54 219.699 811.446 225.044 813.489" fill="white"/>
<path d="M176.561 838.659C178.692 824.294 191.292 812.568 207.726 811.085C213.785 810.54 219.699 811.446 225.044 813.489" stroke="#C8C8C8" stroke-width="2.8125" stroke-miterlimit="14.3"/>
<path fill-rule="evenodd" clip-rule="evenodd" d="M128.213 876.37C123.543 871.659 120.789 865.396 121.087 858.733C121.686 845.403 134.29 835.185 149.005 836.097C158.202 836.667 166.189 841.46 170.743 848.229" fill="white"/>
<path d="M128.213 876.37C123.543 871.659 120.789 865.396 121.087 858.733C121.686 845.403 134.29 835.185 149.005 836.097C158.202 836.667 166.189 841.46 170.743 848.229" stroke="#C8C8C8" stroke-width="2.8125" stroke-miterlimit="14.3"/>
<path fill-rule="evenodd" clip-rule="evenodd" d="M123.95 897.702C116.449 896.033 111.43 889.701 112.832 883.674C114.236 877.647 121.566 874.059 129.068 875.728" fill="white"/>
<path d="M123.95 897.702C116.449 896.033 111.43 889.701 112.832 883.674C114.236 877.647 121.566 874.059 129.068 875.728" stroke="#C8C8C8" stroke-width="2.8125" stroke-miterlimit="14.3"/>
<path fill-rule="evenodd" clip-rule="evenodd" d="M326.734 904.058C320.08 902.534 314.033 898.708 310.225 892.948C302.608 881.43 306.63 866.258 319.137 859.345C326.952 855.025 336.353 854.883 344.163 858.198" fill="white"/>
<path d="M326.734 904.058C320.08 902.534 314.033 898.708 310.225 892.948C302.608 881.43 306.63 866.258 319.137 859.345C326.952 855.025 336.353 854.883 344.163 858.198" stroke="#C8C8C8" stroke-width="2.8125" stroke-miterlimit="14.3"/>
<path fill-rule="evenodd" clip-rule="evenodd" d="M328.081 900.387C325.838 897.845 322.267 896.255 318.407 896.43C312.233 896.711 307.512 901.409 307.948 906.839C308.138 909.213 309.287 911.359 311.036 913.001L309.148 913.379C301.764 916.623 296.885 924.276 297.575 932.859C298.466 943.93 308.309 952.628 319.38 952.123" fill="white"/>
<path d="M328.081 900.387C325.838 897.845 322.267 896.255 318.407 896.43C312.233 896.711 307.512 901.409 307.948 906.839C308.138 909.213 309.287 911.359 311.036 913.001L309.148 913.379C301.764 916.623 296.885 924.276 297.575 932.859C298.466 943.93 308.309 952.628 319.38 952.123" stroke="#C8C8C8" stroke-width="2.8125" stroke-miterlimit="14.3"/>
<path fill-rule="evenodd" clip-rule="evenodd" d="M328.634 900.476C326.391 897.935 322.819 896.345 318.96 896.52C312.786 896.801 308.065 901.499 308.5 906.929C308.69 909.303 309.84 911.449 311.589 913.091L309.701 913.469C302.316 916.713 297.437 924.366 298.128 932.949C299.019 944.02 308.861 952.718 319.932 952.213" fill="white"/>
<path d="M328.634 900.476C326.391 897.935 322.819 896.345 318.96 896.52C312.786 896.801 308.065 901.499 308.5 906.929C308.69 909.303 309.84 911.449 311.589 913.091L309.701 913.469C302.316 916.713 297.437 924.366 298.128 932.949C299.019 944.02 308.861 952.718 319.932 952.213" stroke="#C8C8C8" stroke-width="0.9375" stroke-miterlimit="11.5"/>
<path fill-rule="evenodd" clip-rule="evenodd" d="M424.781 815.288C435.247 799.063 455.476 796.745 470.597 803.358C488.529 811.199 496.782 830.999 488.877 847.214C488.262 848.476 487.563 849.683 486.795 850.831" fill="white"/>
<path d="M424.781 815.288C435.247 799.063 455.476 796.745 470.597 803.358C488.529 811.199 496.782 830.999 488.877 847.214C488.262 848.476 487.563 849.683 486.795 850.831" stroke="#C8C8C8" stroke-width="0.9375" stroke-miterlimit="11.5"/>
<path fill-rule="evenodd" clip-rule="evenodd" d="M472.15 859.018C473.604 850.09 482.62 844.014 492.122 845.561C501.622 847.107 508.246 855.729 506.792 864.657" fill="white"/>
<path d="M472.15 859.018C473.604 850.09 482.62 844.014 492.122 845.561C501.622 847.107 508.246 855.729 506.792 864.657" stroke="#C8C8C8" stroke-width="0.9375" stroke-miterlimit="11.5"/>
<path fill-rule="evenodd" clip-rule="evenodd" d="M424.235 893.76C419.568 885.682 422.675 875.705 431.118 871.659C439.56 867.613 450.35 870.928 455.018 879.007" fill="white"/>
<path d="M424.235 893.76C419.568 885.682 422.675 875.705 431.118 871.659C439.56 867.613 450.35 870.928 455.018 879.007" stroke="#C8C8C8" stroke-width="0.9375" stroke-miterlimit="11.5"/>
<path fill-rule="evenodd" clip-rule="evenodd" d="M452.37 882.687C452.363 876.371 454.929 870.164 460.075 865.61C470.364 856.5 487.323 857.217 497.64 867.201C504.088 873.438 506.515 881.917 504.915 889.623" fill="white"/>
<path d="M452.37 882.687C452.363 876.371 454.929 870.164 460.075 865.61C470.364 856.5 487.323 857.217 497.64 867.201C504.088 873.438 506.515 881.917 504.915 889.623" stroke="#C8C8C8" stroke-width="0.9375" stroke-miterlimit="11.5"/>
<path fill-rule="evenodd" clip-rule="evenodd" d="M435.03 895.973C435.201 886.914 443.245 879.773 452.847 880.154C462.45 880.535 470.216 888.305 470.046 897.362" fill="white"/>
<path d="M435.03 895.973C435.201 886.914 443.245 879.773 452.847 880.154C462.45 880.535 470.216 888.305 470.046 897.362" stroke="#C8C8C8" stroke-width="0.9375" stroke-miterlimit="11.5"/>
<path fill-rule="evenodd" clip-rule="evenodd" d="M274.169 816.129C276.494 813.76 277.572 810.29 276.714 806.775C275.342 801.149 269.506 797.4 263.788 798.466C261.286 798.935 259.193 800.251 257.746 802.056L257.014 800.372C252.27 794.003 243.252 790.473 234.213 792.161C222.546 794.341 214.971 804.436 217.429 814.52" fill="white"/>
<path d="M274.169 816.129C276.494 813.76 277.572 810.289 276.714 806.775C275.342 801.149 269.506 797.4 263.788 798.466C261.286 798.935 259.193 800.251 257.746 802.056L257.014 800.372C252.27 794.003 243.252 790.473 234.213 792.161C222.546 794.341 214.971 804.436 217.429 814.52" stroke="#C8C8C8" stroke-width="0.9375" stroke-miterlimit="11.5"/>
<path fill-rule="evenodd" clip-rule="evenodd" d="M177.114 838.749C179.242 824.384 191.843 812.657 208.279 811.175C227.77 809.419 245.758 822.692 248.123 840.576C248.308 841.968 248.391 843.352 248.381 844.718" fill="white"/>
<path d="M177.114 838.749C179.242 824.384 191.843 812.657 208.279 811.175C227.77 809.419 245.758 822.692 248.123 840.576C248.308 841.968 248.391 843.352 248.381 844.718" stroke="#C8C8C8" stroke-width="0.9375" stroke-miterlimit="11.5"/>
<path fill-rule="evenodd" clip-rule="evenodd" d="M156.523 849.905C156.694 840.848 164.738 833.705 174.343 834.088C183.948 834.471 191.712 842.239 191.542 851.296" fill="white"/>
<path d="M156.523 849.905C156.694 840.848 164.738 833.705 174.343 834.088C183.948 834.471 191.712 842.239 191.542 851.296" stroke="#C8C8C8" stroke-width="0.9375" stroke-miterlimit="11.5"/>
<path fill-rule="evenodd" clip-rule="evenodd" d="M124.513 897.794C117.011 896.125 111.993 889.792 113.394 883.765C114.798 877.738 122.126 874.15 129.63 875.82" fill="white"/>
<path d="M124.513 897.794C117.011 896.125 111.993 889.792 113.394 883.765C114.798 877.738 122.126 874.15 129.63 875.82" stroke="#C8C8C8" stroke-width="0.9375" stroke-miterlimit="11.5"/>
<path fill-rule="evenodd" clip-rule="evenodd" d="M159.622 907.36C161.753 892.995 174.354 881.269 190.79 879.786C210.282 878.03 228.27 891.303 230.634 909.187C230.817 910.579 230.902 911.963 230.892 913.329" fill="white"/>
<path d="M159.622 907.36C161.753 892.995 174.354 881.269 190.79 879.786C210.282 878.03 228.27 891.303 230.634 909.187C230.817 910.579 230.902 911.963 230.892 913.329" stroke="#C8C8C8" stroke-width="0.9375" stroke-miterlimit="11.5"/>
<path fill-rule="evenodd" clip-rule="evenodd" d="M386.642 857.316C388.968 854.947 390.045 851.476 389.188 847.962C387.816 842.336 381.979 838.587 376.261 839.656C373.759 840.122 371.666 841.44 370.22 843.246L369.487 841.559C364.744 835.19 355.726 831.66 346.686 833.348C335.019 835.528 327.445 845.623 329.903 855.707" fill="white"/>
<path d="M386.642 857.316C388.968 854.947 390.045 851.476 389.188 847.962C387.816 842.336 381.979 838.587 376.261 839.656C373.759 840.122 371.666 841.44 370.22 843.246L369.487 841.559C364.744 835.19 355.726 831.66 346.686 833.348C335.019 835.528 327.445 845.623 329.903 855.707" stroke="#C8C8C8" stroke-width="0.9375" stroke-miterlimit="11.5"/>
<path fill-rule="evenodd" clip-rule="evenodd" d="M344.62 790.081C348.641 788.185 351.535 784.508 351.959 780.029C352.64 772.86 346.761 766.175 338.939 765.22C335.517 764.804 332.252 765.547 329.604 767.116L329.394 764.847C326.059 755.493 315.991 747.836 303.623 746.327C287.665 744.38 273.53 753.355 272.308 766.208" fill="white"/>
<path d="M344.62 790.081C348.641 788.185 351.535 784.508 351.959 780.029C352.64 772.86 346.761 766.175 338.939 765.22C335.517 764.804 332.252 765.547 329.604 767.116L329.394 764.847C326.059 755.493 315.991 747.836 303.623 746.327C287.665 744.38 273.53 753.355 272.308 766.208" stroke="#C8C8C8" stroke-width="2.8125" stroke-miterlimit="14.3"/>
<path fill-rule="evenodd" clip-rule="evenodd" d="M344.397 790.703C348.416 788.807 351.31 785.13 351.735 780.648C352.417 773.482 346.536 766.797 338.714 765.841C335.292 765.425 332.027 766.168 329.381 767.737L329.169 765.465C325.834 756.114 315.766 748.454 303.398 746.946C287.443 744.998 273.305 753.974 272.086 766.827" fill="white"/>
<path d="M344.397 790.703C348.416 788.807 351.31 785.13 351.735 780.648C352.417 773.482 346.536 766.797 338.714 765.841C335.292 765.425 332.027 766.168 329.381 767.737L329.169 765.465C325.834 756.114 315.766 748.454 303.398 746.946C287.443 744.998 273.305 753.974 272.086 766.827" stroke="#C8C8C8" stroke-width="0.9375" stroke-miterlimit="11.5"/>
<path fill-rule="evenodd" clip-rule="evenodd" d="M413.625 832.722C418.826 830.268 422.57 825.511 423.119 819.716C424.001 810.442 416.398 801.793 406.276 800.558C401.849 800.019 397.627 800.98 394.201 803.012L393.928 800.074C389.616 787.972 376.591 778.065 360.593 776.113C339.95 773.595 321.662 785.208 320.082 801.835" fill="white"/>
<path d="M413.625 832.722C418.826 830.268 422.57 825.511 423.119 819.716C424.001 810.442 416.398 801.793 406.276 800.558C401.849 800.019 397.627 800.98 394.201 803.012L393.928 800.074C389.616 787.972 376.591 778.065 360.593 776.113C339.95 773.595 321.662 785.208 320.082 801.835" stroke="#C8C8C8" stroke-width="2.8125" stroke-miterlimit="14.3"/>
<path fill-rule="evenodd" clip-rule="evenodd" d="M413.333 833.516C418.534 831.064 422.278 826.307 422.827 820.509C423.709 811.237 416.103 802.589 405.984 801.354C401.558 800.813 397.332 801.776 393.909 803.805L393.637 800.867C389.324 788.768 376.3 778.861 360.301 776.91C339.658 774.392 321.37 786.005 319.79 802.632" fill="white"/>
<path d="M413.333 833.516C418.534 831.064 422.278 826.307 422.827 820.509C423.709 811.237 416.103 802.589 405.984 801.354C401.558 800.813 397.332 801.776 393.909 803.805L393.637 800.867C389.324 788.768 376.3 778.861 360.301 776.91C339.658 774.392 321.37 786.005 319.79 802.632" stroke="#C8C8C8" stroke-width="0.9375" stroke-miterlimit="11.5"/>
<path fill-rule="evenodd" clip-rule="evenodd" d="M386.642 857.316C388.968 854.947 390.045 851.476 389.188 847.962C387.816 842.336 381.979 838.587 376.261 839.656C373.759 840.122 371.666 841.44 370.22 843.246L369.487 841.559C364.744 835.19 355.726 831.66 346.686 833.348C335.019 835.528 327.445 845.623 329.903 855.707" fill="white"/>
<path d="M386.642 857.316C388.968 854.947 390.045 851.476 389.188 847.962C387.816 842.336 381.979 838.587 376.261 839.656C373.759 840.122 371.666 841.44 370.22 843.246L369.487 841.559C364.744 835.19 355.726 831.66 346.686 833.348C335.019 835.528 327.445 845.623 329.903 855.707" stroke="#C8C8C8" stroke-width="0.9375" stroke-miterlimit="11.5"/>
<path fill-rule="evenodd" clip-rule="evenodd" d="M209.314 862.886L263.93 653.724L287.077 659.589L274.107 869.249" fill="white"/>
<path d="M209.314 862.886L263.93 653.724L287.077 659.589L274.107 869.249" stroke="#C8C8C8" stroke-width="2.8125" stroke-miterlimit="14.3"/>
<path fill-rule="evenodd" clip-rule="evenodd" d="M344.777 882.841L399.394 673.679L422.543 679.545L409.57 889.204" fill="white"/>
<path d="M344.777 882.841L399.394 673.679L422.543 679.545L409.57 889.204" stroke="#C8C8C8" stroke-width="2.8125" stroke-miterlimit="14.3"/>
<path fill-rule="evenodd" clip-rule="evenodd" d="M416.501 837.709C416.672 828.649 424.716 821.509 434.318 821.889C443.921 822.27 451.687 830.041 451.516 839.1" fill="white"/>
<path d="M416.501 837.709C416.672 828.649 424.716 821.509 434.318 821.889C443.921 822.27 451.687 830.041 451.516 839.1" stroke="#C8C8C8" stroke-width="0.9375" stroke-miterlimit="11.5"/>
<path fill-rule="evenodd" clip-rule="evenodd" d="M241.268 916.973C245.686 907.698 257.926 903.745 268.381 908.218C278.836 912.691 283.808 924.006 279.392 933.281" fill="white"/>
<path d="M241.268 916.973C245.686 907.698 257.926 903.745 268.381 908.218C278.836 912.691 283.808 924.006 279.392 933.281" stroke="#C8C8C8" stroke-width="0.9375" stroke-miterlimit="11.5"/>
<path fill-rule="evenodd" clip-rule="evenodd" d="M218.575 910.989C221.623 904.587 230.072 901.858 237.289 904.946C244.506 908.033 247.936 915.843 244.885 922.245" fill="white"/>
<path d="M218.575 910.989C221.623 904.587 230.072 901.858 237.289 904.946C244.506 908.033 247.936 915.843 244.885 922.245" stroke="#C8C8C8" stroke-width="0.9375" stroke-miterlimit="11.5"/>
<path fill-rule="evenodd" clip-rule="evenodd" d="M333.557 905.645C318.314 903.163 314.594 898.806 310.786 893.047C303.168 881.529 307.191 866.357 319.695 859.443C327.51 855.123 336.911 854.981 344.721 858.296" fill="white"/>
<path d="M333.557 905.645C318.314 903.163 314.594 898.806 310.786 893.047C303.168 881.529 307.191 866.357 319.695 859.443C327.51 855.123 336.911 854.981 344.721 858.296" stroke="#C8C8C8" stroke-width="0.9375" stroke-miterlimit="11.5"/>
<path d="M393.28 859.277L390.805 932.259M614.116 972.594C619.075 968.57 622.181 962.771 622.221 956.184C622.301 943.01 610.084 931.337 595.159 930.329C585.833 929.697 580.576 928.861 575.628 934.923L614.116 972.594ZM264.877 767.092L255.086 885.011L264.877 767.092ZM385.303 778.308L358.115 916.454L385.303 778.308Z" stroke="#C8C8C8" stroke-width="0.9375" stroke-miterlimit="11.5"/>
<path fill-rule="evenodd" clip-rule="evenodd" d="M41.987 928.685C40.3769 924.411 40.6151 919.659 43.0917 915.478C48.0502 907.116 60.217 903.991 70.0456 908.553C76.1887 911.407 80.0578 916.631 80.8851 922.191" fill="white"/>
<path d="M41.987 928.685C40.3769 924.411 40.6151 919.659 43.0917 915.478C48.0502 907.116 60.217 903.991 70.0456 908.553C76.1887 911.407 80.0578 916.631 80.8851 922.191" stroke="#C8C8C8" stroke-width="2.8125" stroke-miterlimit="14.3"/>
<path fill-rule="evenodd" clip-rule="evenodd" d="M45.0922 928.157C45.9614 925.997 45.6314 923.429 43.9624 921.326C41.2895 917.962 36.1252 916.98 32.5232 919.152C30.9491 920.101 29.9157 921.508 29.4769 923.07L28.454 922.146C23.2352 919.153 15.9521 919.13 10.2584 922.564C2.9116 926.993 0.810514 935.603 5.60318 941.637" fill="white"/>
<path d="M45.0922 928.157C45.9614 925.997 45.6314 923.429 43.9624 921.326C41.2895 917.962 36.1252 916.98 32.5232 919.152C30.9491 920.101 29.9157 921.508 29.4769 923.07L28.454 922.146C23.2352 919.153 15.9521 919.13 10.2584 922.564C2.9116 926.993 0.810514 935.603 5.60318 941.637" stroke="#C8C8C8" stroke-width="2.8125" stroke-miterlimit="14.3"/>
<path fill-rule="evenodd" clip-rule="evenodd" d="M45.248 928.507C46.1148 926.346 45.7872 923.778 44.1182 921.676C41.4453 918.311 36.2814 917.327 32.6794 919.499C31.1024 920.451 30.0719 921.855 29.6327 923.42L28.6097 922.495C23.391 919.502 16.1079 919.479 10.4142 922.913C3.06736 927.343 0.966283 935.952 5.75895 941.987" fill="white"/>
<path d="M45.248 928.507C46.1148 926.346 45.7873 923.778 44.1183 921.676C41.4454 918.311 36.2815 917.327 32.6795 919.499C31.1025 920.451 30.072 921.855 29.6328 923.42L28.6098 922.495C23.3911 919.502 16.108 919.479 10.4143 922.913C3.06746 927.343 0.966374 935.952 5.75904 941.987" stroke="#C8C8C8" stroke-width="0.9375" stroke-miterlimit="11.5"/>
<path fill-rule="evenodd" clip-rule="evenodd" d="M42.868 929.933C41.2554 925.658 40.7709 920.01 43.2474 915.83C48.206 907.468 60.373 904.34 70.2013 908.905C76.3449 911.756 80.2135 916.982 81.0409 922.543" fill="white"/>
<path d="M42.868 929.933C41.2554 925.658 40.7709 920.01 43.2474 915.83C48.206 907.468 60.373 904.34 70.2013 908.905C76.3449 911.756 80.2135 916.982 81.0409 922.543" stroke="#C8C8C8" stroke-width="0.9375" stroke-miterlimit="11.5"/>
<path d="M481.086 355.375C481.086 355.375 467.526 361.049 456.952 354.109C446.378 347.17 435.683 331.322 451.729 315.135C467.774 298.95 486.881 316.786 486.881 316.786M405.077 374.576C405.077 374.576 401.367 371.478 402.61 366.221C403.852 360.964 406.703 358.31 411.713 360.605C416.725 362.899 418.331 365.498 418.331 365.498C418.331 365.498 414.564 357.948 417.356 350.839C420.148 343.729 427.205 342.069 432.77 346.713C438.335 351.358 438.641 354.762 438.641 354.762L405.077 374.576Z" stroke="black" stroke-width="1.125" stroke-miterlimit="14.3"/>
<path fill-rule="evenodd" clip-rule="evenodd" d="M261.477 635.625C261.477 635.625 257.229 639.199 254.617 648.492C252.005 657.784 254.994 665.814 253.098 674.644C251.202 683.474 259.366 672.295 259.366 672.295C259.366 672.295 255.911 678.316 258.773 689.408C262.809 705.052 258.724 718.34 258.724 718.34L263.23 708.839C263.23 708.839 266.848 712.078 264.402 726.331C261.957 740.585 257.109 774.643 257.109 774.643C257.109 774.643 271.135 735.166 274.925 726.126C278.715 717.087 282.209 712.297 282.209 712.297C282.209 712.297 282.797 714.946 284.142 717.638C285.869 721.087 284.019 713.483 289.617 706.497C292.986 702.296 292.988 693.674 292.988 693.674L296.017 696.787C296.017 696.787 300.859 688.59 301.071 681.862C301.282 675.134 302.587 674.798 302.587 674.798L304.228 675.767C304.228 675.767 308.566 669.923 308.904 662.608C309.242 655.291 307.812 647.595 307.812 647.595" fill="white"/>
<path d="M261.477 635.625C261.477 635.625 257.229 639.199 254.617 648.492C252.005 657.784 254.994 665.814 253.098 674.644C251.202 683.474 259.366 672.295 259.366 672.295C259.366 672.295 255.911 678.316 258.773 689.408C262.809 705.052 258.724 718.34 258.724 718.34L263.23 708.839C263.23 708.839 266.848 712.078 264.402 726.331C261.956 740.585 257.109 774.643 257.109 774.643C257.109 774.643 271.135 735.166 274.925 726.126C278.715 717.087 282.209 712.297 282.209 712.297C282.209 712.297 282.797 714.946 284.142 717.638C285.869 721.087 284.019 713.483 289.617 706.497C292.986 702.296 292.988 693.674 292.988 693.674L296.017 696.787C296.017 696.787 300.859 688.59 301.07 681.862C301.282 675.134 302.587 674.798 302.587 674.798L304.228 675.767C304.228 675.767 308.566 669.923 308.904 662.608C309.242 655.291 307.812 647.595 307.812 647.595" fill="#B8A1FA"/>
<path d="M261.477 635.625C261.477 635.625 257.229 639.199 254.617 648.492C252.005 657.784 254.994 665.814 253.098 674.644C251.202 683.474 259.366 672.295 259.366 672.295C259.366 672.295 255.911 678.316 258.773 689.408C262.809 705.052 258.724 718.34 258.724 718.34L263.23 708.839C263.23 708.839 266.848 712.078 264.402 726.331C261.956 740.585 257.109 774.643 257.109 774.643C257.109 774.643 271.135 735.166 274.925 726.126C278.715 717.087 282.209 712.297 282.209 712.297C282.209 712.297 282.797 714.946 284.142 717.638C285.869 721.087 284.019 713.483 289.617 706.497C292.986 702.296 292.988 693.674 292.988 693.674L296.017 696.787C296.017 696.787 300.859 688.59 301.07 681.862C301.282 675.134 302.587 674.798 302.587 674.798L304.228 675.767C304.228 675.767 308.566 669.923 308.904 662.608C309.242 655.291 307.812 647.595 307.812 647.595" stroke="black" stroke-width="2.25" stroke-miterlimit="14.3"/>
<path fill-rule="evenodd" clip-rule="evenodd" d="M299.654 646.389C299.654 646.389 301.208 648.88 300.589 653.485C299.97 658.088 296.537 660.907 295.625 665.152C294.714 669.398 292.682 662.742 292.682 662.742C292.682 662.742 293.552 667.122 289.509 671.293C283.806 677.176 284.206 683.049 284.206 683.049L281.942 676.32C281.942 676.32 279.718 678.318 277.907 685.035C276.097 691.751 273.635 697.744 273.635 697.744C273.635 697.744 272.226 687.37 272.137 682.613C272.048 677.856 272.409 674.681 272.409 674.681C272.409 674.681 270.269 676.022 268.926 676.89C267.207 678.003 269.916 675.118 268.374 670.849C267.445 668.28 269.357 664.546 269.357 664.546L266.992 665.224C266.992 665.224 266.136 660.598 267.512 657.637C268.888 654.675 268.239 654.239 268.239 654.239L267.118 654.295C267.118 654.295 266.019 650.803 267.454 647.557C268.89 644.31 271.389 641.296 271.389 641.296" fill="#B8A1FA"/>
<path d="M299.654 646.389C299.654 646.389 301.208 648.88 300.589 653.485C299.97 658.088 296.537 660.907 295.625 665.152C294.714 669.398 292.682 662.742 292.682 662.742C292.682 662.742 293.552 667.122 289.509 671.293C283.806 677.176 284.206 683.049 284.206 683.049L281.942 676.32C281.942 676.32 279.718 678.318 277.907 685.035C276.097 691.751 273.635 697.744 273.635 697.744C273.635 697.744 272.226 687.37 272.137 682.613C272.048 677.856 272.409 674.681 272.409 674.681C272.409 674.681 270.269 676.022 268.926 676.89C267.207 678.003 269.916 675.118 268.374 670.849C267.445 668.28 269.357 664.546 269.357 664.546L266.992 665.224C266.992 665.224 266.136 660.598 267.512 657.637C268.888 654.675 268.239 654.239 268.239 654.239L267.118 654.295C267.118 654.295 266.019 650.803 267.454 647.557C268.89 644.31 271.389 641.296 271.389 641.296" stroke="black" stroke-width="2.25" stroke-miterlimit="14.3" stroke-linecap="round" stroke-linejoin="round"/>
<path fill-rule="evenodd" clip-rule="evenodd" d="M436.852 643.303C436.852 643.303 439.682 648.081 439.074 657.715C438.47 667.346 432.994 673.939 431.866 682.9C430.738 691.86 426.725 678.611 426.725 678.611C426.725 678.611 427.997 685.435 421.63 694.961C412.651 708.394 412.117 722.283 412.117 722.283L411.003 711.826C411.003 711.826 406.518 713.69 404.115 727.951C401.711 742.212 395.031 775.958 395.031 775.958C395.031 775.958 394.841 734.065 394.251 724.282C393.66 714.499 391.946 708.819 391.946 708.819C391.946 708.819 390.517 711.127 388.357 713.223C385.588 715.909 389.844 709.343 386.871 700.9C385.082 695.821 387.929 687.683 387.929 687.683L384.039 689.621C384.039 689.621 382.179 680.285 384.201 673.864C386.224 667.444 385.104 666.696 385.104 666.696L383.234 667.067C383.234 667.067 381.073 660.119 383.171 653.102C385.269 646.084 389.163 639.292 389.163 639.292" fill="#B8A1FA"/>
<path d="M436.852 643.303C436.852 643.303 439.682 648.081 439.074 657.715C438.47 667.346 432.994 673.939 431.866 682.9C430.738 691.86 426.725 678.611 426.725 678.611C426.725 678.611 427.997 685.435 421.63 694.961C412.651 708.394 412.117 722.283 412.117 722.283L411.003 711.826C411.003 711.826 406.518 713.69 404.115 727.951C401.711 742.212 395.031 775.958 395.031 775.958C395.031 775.958 394.841 734.065 394.251 724.282C393.66 714.499 391.946 708.819 391.946 708.819C391.946 708.819 390.517 711.127 388.357 713.223C385.588 715.909 389.844 709.343 386.871 700.9C385.082 695.821 387.929 687.683 387.929 687.683L384.039 689.621C384.039 689.621 382.179 680.285 384.201 673.864C386.224 667.444 385.104 666.696 385.104 666.696L383.234 667.067C383.234 667.067 381.073 660.119 383.171 653.102C385.269 646.084 389.162 639.292 389.162 639.292" stroke="black" stroke-width="2.25" stroke-miterlimit="14.3"/>
<path fill-rule="evenodd" clip-rule="evenodd" d="M397.367 640.766C397.367 640.766 395.077 642.603 394.139 647.154C393.2 651.705 395.512 655.497 394.969 659.806C394.426 664.114 398.542 658.505 398.542 658.505C398.542 658.505 396.274 662.351 398.713 667.623C402.15 675.058 399.835 680.47 399.835 680.47L404.193 674.866C404.193 674.866 405.631 677.489 405.122 684.427C404.612 691.365 404.954 697.832 404.954 697.832C404.954 697.832 409.713 688.505 411.369 684.046C413.025 679.586 413.732 676.47 413.732 676.47C413.732 676.47 415.31 678.442 416.29 679.705C417.546 681.323 415.942 677.705 418.808 674.187C420.534 672.069 419.963 667.912 419.963 667.912L421.971 669.333C421.971 669.333 424.308 665.25 423.989 662.002C423.667 658.752 424.422 658.555 424.422 658.555L425.463 658.978C425.463 658.978 427.654 656.044 427.372 652.508C427.087 648.969 425.727 645.296 425.727 645.296" fill="white"/>
<path d="M397.367 640.766C397.367 640.766 395.077 642.603 394.139 647.154C393.2 651.705 395.512 655.497 394.969 659.806C394.426 664.114 398.542 658.505 398.542 658.505C398.542 658.505 396.274 662.351 398.713 667.623C402.15 675.058 399.835 680.47 399.835 680.47L404.193 674.866C404.193 674.866 405.631 677.489 405.122 684.427C404.612 691.365 404.953 697.832 404.953 697.832C404.953 697.832 409.713 688.505 411.369 684.046C413.025 679.586 413.732 676.469 413.732 676.469C413.732 676.469 415.31 678.442 416.29 679.705C417.546 681.323 415.942 677.705 418.808 674.187C420.534 672.069 419.962 667.912 419.962 667.912L421.971 669.333C421.971 669.333 424.308 665.25 423.989 662.002C423.667 658.752 424.422 658.555 424.422 658.555L425.463 658.977C425.463 658.977 427.654 656.044 427.372 652.508C427.087 648.969 425.727 645.296 425.727 645.296" fill="#B8A1FA"/>
<path d="M397.367 640.766C397.367 640.766 395.077 642.603 394.139 647.154C393.2 651.705 395.512 655.497 394.969 659.806C394.426 664.114 398.542 658.505 398.542 658.505C398.542 658.505 396.274 662.351 398.713 667.623C402.15 675.058 399.835 680.47 399.835 680.47L404.193 674.866C404.193 674.866 405.631 677.489 405.122 684.427C404.612 691.365 404.953 697.832 404.953 697.832C404.953 697.832 409.713 688.505 411.369 684.046C413.025 679.586 413.732 676.469 413.732 676.469C413.732 676.469 415.31 678.442 416.29 679.705C417.546 681.323 415.942 677.705 418.808 674.187C420.534 672.069 419.962 667.912 419.962 667.912L421.971 669.333C421.971 669.333 424.308 665.25 423.989 662.002C423.667 658.752 424.422 658.555 424.422 658.555L425.463 658.977C425.463 658.977 427.654 656.044 427.372 652.508C427.087 648.969 425.727 645.296 425.727 645.296" stroke="black" stroke-width="2.25" stroke-miterlimit="14.3" stroke-linecap="round" stroke-linejoin="round"/>
<path fill-rule="evenodd" clip-rule="evenodd" d="M405.522 578.406L463.886 310.027C463.886 310.027 468.405 284.065 465.452 271.75C462.499 259.434 454.198 219.909 439.143 216.637L436.993 216.169C421.935 212.896 397.971 245.404 390.171 255.382C382.369 265.361 375.698 290.854 375.698 290.854L317.334 559.233C317.334 559.233 309.053 582.623 355.857 592.798C402.66 602.972 405.522 578.406 405.522 578.406Z" fill="#B8A1FA"/>
<path d="M405.522 578.406L463.886 310.027C463.886 310.027 468.405 284.065 465.452 271.75C462.499 259.434 454.198 219.909 439.143 216.637L436.993 216.169C421.935 212.896 397.971 245.404 390.171 255.382C382.369 265.361 375.698 290.854 375.698 290.854L317.334 559.233C317.334 559.233 309.053 582.623 355.857 592.798C402.66 602.972 405.522 578.406 405.522 578.406L405.522 578.406Z" stroke="black" stroke-width="2.25" stroke-miterlimit="14.3"/>
<path d="M361.879 356.463C361.879 356.463 382.18 350.997 408.939 356.706C437.841 362.87 448.583 374.959 448.583 374.959M380.109 272.721C380.109 272.721 401.561 261.631 428.296 267.442C457.172 273.72 466.734 291.552 466.734 291.552L380.109 272.721ZM376.417 290.805C376.417 290.805 397.056 283.466 423.816 289.177C452.718 295.342 463.197 310.811 463.197 310.811L376.417 290.805Z" stroke="black" stroke-width="1.125" stroke-miterlimit="11.5"/>
<path d="M378.53 290.089L362.438 355.097M459.497 305.604L444.636 371.753L459.497 305.604ZM457.257 304.031L442.763 369.745L457.257 304.031ZM454.716 302.646L440.102 368.854L454.716 302.646ZM452.041 300.71L437.544 366.422L452.041 300.71ZM449.308 299.021L434.576 365.721L449.308 299.021ZM446.445 296.778L431.785 364.278L446.445 296.778ZM439.943 294.457L424.966 361.102L439.943 294.457ZM443.041 295.712L428.311 362.415L443.041 295.712ZM437.003 292.121L422.175 359.66L437.003 292.121ZM434.136 291.932L418.902 359.147L434.136 291.932ZM430.929 291.249L415.937 358.445L430.929 291.249ZM427.725 290.567L412.533 357.381L427.725 290.567ZM424.187 289.353L408.93 356.016L424.187 289.353ZM461.559 307.917L446.833 373.23L461.559 307.917ZM381.427 288.881L365.078 354.7L381.427 288.881ZM384.147 288.412L367.667 353.685L384.147 288.412ZM387.06 288.243L370.461 354.009L387.06 288.243ZM390.337 287.629L373.856 352.902L390.337 287.629ZM393.555 287.264L376.84 353.526L393.555 287.264ZM397.14 286.457L380 353.407L397.14 286.457ZM404.033 287.115L387.565 353.43L404.033 287.115ZM400.68 286.935L383.967 353.196L400.68 286.935ZM407.729 286.254L390.728 353.311L407.729 286.254ZM410.395 287.3L393.903 354.232L410.395 287.3ZM413.588 288.039L396.887 354.854L413.588 288.039ZM416.78 288.78L400.429 355.336L416.78 288.78ZM420.475 289.235L404.251 355.684L420.475 289.235Z" stroke="black" stroke-width="0.5625" stroke-miterlimit="14.3"/>
<path d="M345.296 431.176C345.296 431.176 364.312 431.289 391.048 437.101C419.923 443.379 431.921 450.01 431.921 450.01" stroke="black" stroke-width="1.125" stroke-miterlimit="11.5"/>
<path d="M440.023 209.081L441.713 201.313" stroke="black" stroke-width="2.25" stroke-miterlimit="11.5" stroke-linecap="round" stroke-linejoin="round"/>
<path fill-rule="evenodd" clip-rule="evenodd" d="M436.671 208.322L443.17 209.734L441.817 215.951L435.319 214.537" fill="white"/>
<path d="M436.671 208.323L443.17 209.734L441.817 215.951L435.319 214.537L436.671 208.323Z" stroke="black" stroke-width="2.25" stroke-miterlimit="11.5" stroke-linecap="round" stroke-linejoin="round"/>
<path d="M403.923 578.085C403.923 578.085 384.616 579.305 357.879 573.493C329.003 567.215 317.293 559.253 317.293 559.253L403.923 578.085ZM440.751 219.039C440.751 219.039 438.739 255.164 435.211 274.084C431.68 293.004 429.928 301.061 429.928 301.061L370.36 574.979" fill="#101010"/>
<path d="M440.751 219.039C440.751 219.039 438.739 255.164 435.211 274.084C431.68 293.004 429.928 301.061 429.928 301.061L370.36 574.979M403.923 578.085C403.923 578.085 384.616 579.305 357.879 573.493C329.003 567.215 317.293 559.253 317.293 559.253L403.923 578.085Z" stroke="black" stroke-width="1.125" stroke-miterlimit="11.5"/>
<path fill-rule="evenodd" clip-rule="evenodd" d="M409.502 562.175L409.95 567.149L407.085 582.691L404.634 586.192L405.414 590.941L404.412 597.425L401.682 602.202L401.303 608.324L399.464 613.845L400.852 619.34L389.212 637.676C389.212 637.676 402.335 630.233 420.013 634.412C437.69 638.59 439.896 646.413 439.896 646.413L437.158 627.112L439.679 621.886L439.939 615.348L442.013 609.655L441.069 603.702L442.522 597.557L445.222 593.741L443.572 589.696L448.253 569.171C448.253 569.171 451.507 566.429 452.417 562.587C453.327 558.746 451.202 557.432 451.202 557.432L452.653 551.287L493.892 332.308L486.513 294.877C486.513 294.877 486.427 288.37 483.353 287.641C480.28 286.913 476.744 295.003 476.744 295.003L457.587 324.539L409.502 562.171" fill="white"/>
<path d="M409.502 562.175L409.95 567.149L407.085 582.691L404.634 586.192L405.414 590.941L404.412 597.425L401.682 602.202L401.303 608.324L399.464 613.845L400.852 619.34L389.212 637.676C389.212 637.676 402.335 630.233 420.013 634.412C437.69 638.59 439.896 646.413 439.896 646.413L437.158 627.112L439.679 621.886L439.939 615.348L442.013 609.655L441.069 603.702L442.522 597.558L445.222 593.741L443.572 589.696L448.253 569.171C448.253 569.171 451.507 566.429 452.417 562.587C453.327 558.746 451.202 557.432 451.202 557.432L452.653 551.287L493.892 332.308L486.513 294.877C486.513 294.877 486.427 288.37 483.353 287.642C480.28 286.913 476.744 295.003 476.744 295.003L457.587 324.54L409.502 562.171L409.502 562.175Z" stroke="black" stroke-width="2.25" stroke-miterlimit="11.5" stroke-linecap="round" stroke-linejoin="round"/>
<path fill-rule="evenodd" clip-rule="evenodd" d="M280.774 562.211L281.103 567.13L277.92 582.416L275.419 585.817L276.08 590.526L274.946 596.907L272.141 601.563L271.625 607.599L269.683 613.009L270.931 618.469L259.018 636.312C259.018 636.312 272.146 629.262 289.511 633.789C306.873 638.318 308.876 646.093 308.876 646.093L306.609 626.968L309.218 621.864L309.625 615.413L311.803 609.84L311.006 603.939L312.581 597.904L315.334 594.196L313.795 590.161L318.883 570C318.883 570 322.162 567.363 323.147 563.591C324.131 559.818 322.064 558.475 322.064 558.475L323.639 552.437L369.34 337.113L362.905 299.976C362.905 299.976 362.971 293.547 359.95 292.761C356.929 291.975 353.255 299.878 353.255 299.878L333.663 328.611L280.775 562.208" fill="white"/>
<path d="M280.774 562.211L281.103 567.13L277.92 582.416L275.419 585.817L276.08 590.526L274.946 596.907L272.141 601.563L271.625 607.599L269.683 613.009L270.931 618.469L259.018 636.312C259.018 636.312 272.147 629.262 289.511 633.789C306.873 638.318 308.876 646.093 308.876 646.093L306.609 626.968L309.218 621.864L309.625 615.413L311.803 609.84L311.006 603.939L312.581 597.904L315.334 594.196L313.795 590.161L318.883 570C318.883 570 322.162 567.363 323.147 563.591C324.131 559.818 322.064 558.475 322.064 558.475L323.639 552.437L369.34 337.113L362.905 299.976C362.905 299.976 362.971 293.547 359.95 292.761C356.929 291.975 353.255 299.878 353.255 299.878L333.663 328.611L280.775 562.208L280.774 562.211Z" stroke="black" stroke-width="2.25" stroke-miterlimit="11.5" stroke-linecap="round" stroke-linejoin="round"/>
<path d="M335.057 323.917C335.057 323.917 344.084 318.85 354.241 321.435C367.666 324.857 370.364 330.779 370.364 330.779" stroke="black" stroke-width="1.125" stroke-miterlimit="14.3"/>
<path fill-rule="evenodd" clip-rule="evenodd" d="M312.271 568.383L231.388 550.074L239.69 525.268C239.69 525.268 243.811 518.132 250.462 514.027C257.115 509.922 307.797 474.051 314.043 468.229C320.29 462.407 330.31 437.198 330.31 437.198L349.663 348.5C349.663 348.5 355.56 330.426 361.039 324.423C366.518 318.419 374.525 315.444 377.332 310.431C380.141 305.416 389.923 291.507 397.022 292.376C404.122 293.242 408.356 309.654 409.069 320.365C409.782 331.077 411.431 354.99 411.514 361.498C411.598 368.006 412.466 450.131 416.616 460.033C420.766 469.934 461.837 505.601 464.994 512.837C468.152 520.073 469.983 543.214 469.257 546.287C468.531 549.359 381.416 567.697 381.416 567.697L371.131 587.165L314.647 589.221C314.647 589.221 308.05 582.796 310.274 576.832C312.495 570.869 312.271 568.383 312.271 568.383Z" fill="white"/>
<path d="M318.586 493.632L350.56 345.647M312.271 568.383L231.388 550.074L239.69 525.268C239.69 525.268 243.811 518.132 250.462 514.027C257.115 509.922 307.797 474.051 314.043 468.229C320.29 462.407 330.31 437.198 330.31 437.198L349.663 348.5C349.663 348.5 355.56 330.426 361.039 324.423C366.518 318.419 374.525 315.444 377.332 310.431C380.141 305.416 389.923 291.507 397.022 292.376C404.122 293.242 408.356 309.654 409.069 320.365C409.782 331.077 411.431 354.99 411.514 361.498C411.598 368.006 412.466 450.131 416.616 460.033C420.766 469.934 461.837 505.601 464.994 512.837C468.152 520.073 469.983 543.214 469.257 546.287C468.531 549.359 381.416 567.697 381.416 567.697L371.131 587.165L314.647 589.221C314.647 589.221 308.05 582.796 310.274 576.832C312.495 570.869 312.272 568.383 312.272 568.383L312.271 568.383Z" stroke="black" stroke-width="2.25" stroke-miterlimit="14.3" stroke-linecap="round" stroke-linejoin="round"/>
<path d="M328.108 350.645C328.108 350.645 337.135 345.577 347.292 348.166C348.573 348.492 349.757 348.841 350.85 349.206M270.828 619.508C270.828 619.508 279.543 615.444 289.608 617.982C302.91 621.338 305.749 626.501 305.749 626.501L270.828 619.508ZM273.056 607.426C273.056 607.426 281.768 603.365 291.834 605.902C305.136 609.256 307.975 614.419 307.975 614.419L273.056 607.426ZM275.141 595.944C275.141 595.944 283.969 591.906 294.196 594.483C307.708 597.886 310.608 603.067 310.608 603.067L275.141 595.944ZM277.823 584.599C277.823 584.599 286.849 579.531 297.007 582.119C310.432 585.539 313.129 591.463 313.129 591.463L277.823 584.599ZM280.755 569.533C280.755 569.533 289.781 564.466 299.939 567.054C313.364 570.473 316.061 576.397 316.061 576.397L280.755 569.533ZM274.452 598.852C274.452 598.852 283.262 594.894 293.489 597.468C307.004 600.869 309.916 605.993 309.916 605.993L274.452 598.852ZM278.529 581.615C278.529 581.615 287.555 576.547 297.713 579.133C311.137 582.555 313.835 588.477 313.835 588.477L278.529 581.615ZM272.226 610.935C272.226 610.935 281.263 606.381 291.599 608.998C305.256 612.455 308.106 618.038 308.106 618.038L272.226 610.935ZM399.807 618.481C399.807 618.481 408.877 614.501 419.436 617.157C433.389 620.665 436.416 625.872 436.416 625.872L399.807 618.481ZM401.862 606.988C401.862 606.988 410.934 603.011 421.491 605.664C435.445 609.172 438.471 614.381 438.471 614.381L401.862 606.988ZM404.547 595.646C404.547 595.646 413.933 590.663 424.587 593.367C438.669 596.943 441.555 602.91 441.555 602.91L404.547 595.646ZM407.448 580.573C407.448 580.573 416.835 575.589 427.492 578.294C441.573 581.87 444.46 587.837 444.46 587.837L407.448 580.573ZM401.174 609.9C401.174 609.9 410.198 605.992 420.719 608.634C434.621 612.126 437.644 617.276 437.644 617.276L401.174 609.9ZM405.251 592.66C405.251 592.66 414.64 587.68 425.295 590.385C439.376 593.96 442.263 599.927 442.263 599.927L405.251 592.66ZM398.979 621.987C398.979 621.987 408.384 617.521 419.225 620.257C433.553 623.875 436.593 629.501 436.593 629.501L398.979 621.987ZM409.004 574.008C409.004 574.008 418.391 569.025 429.048 571.73C443.129 575.305 446.016 581.273 446.016 581.273L409.004 574.008ZM411.436 566.387C411.436 566.387 420.823 561.403 431.48 564.109C445.561 567.684 448.448 573.654 448.448 573.654L411.436 566.387ZM428.042 480.171C428.042 480.171 437.429 475.187 448.086 477.892C462.167 481.468 465.054 487.435 465.054 487.435L428.042 480.171ZM434.613 447.051C434.613 447.051 443.999 442.07 454.656 444.776C468.738 448.351 471.624 454.318 471.624 454.318L434.613 447.051ZM440.305 414.987C440.305 414.987 449.691 410.006 460.348 412.711C474.43 416.287 477.316 422.254 477.316 422.254L440.305 414.987ZM447.897 380.221C447.897 380.221 457.284 375.237 467.94 377.943C482.021 381.521 484.908 387.488 484.908 387.488L447.897 380.221ZM453.132 347.42C453.132 347.42 462.519 342.436 473.176 345.142C487.257 348.717 490.144 354.684 490.144 354.684L453.132 347.42ZM457.868 322.063C457.868 322.063 467.254 317.082 477.911 319.787C491.993 323.362 494.879 329.33 494.879 329.33L457.868 322.063ZM307.768 447.328C307.768 447.328 316.795 442.258 326.953 444.846C328.234 445.173 329.418 445.522 330.511 445.886L307.768 447.328ZM314.794 414.949C314.794 414.949 323.82 409.881 333.978 412.467C335.26 412.793 336.443 413.145 337.536 413.51L314.794 414.949ZM321.366 381.832C321.366 381.832 330.39 376.764 340.548 379.35C341.83 379.676 343.015 380.028 344.106 380.392L321.366 381.832Z" stroke="black" stroke-width="1.125" stroke-miterlimit="14.3"/>
<path d="M303.578 511.811C303.578 511.811 298.646 521.993 297.518 526.769L295.68 534.531L293.845 542.293L295.311 552.095L310.07 553.694L313.818 567.187" stroke="black" stroke-width="2.25" stroke-miterlimit="14.3" stroke-linecap="round" stroke-linejoin="round"/>
<path fill-rule="evenodd" clip-rule="evenodd" d="M345.436 495.545L342.032 485.496L306.128 501.063L302.587 526.703C304.378 527.127 326.089 536.671 326.089 536.671" fill="white"/>
<path d="M345.436 495.545L342.032 485.496L306.128 501.063L302.587 526.703C304.378 527.127 326.089 536.671 326.089 536.671" stroke="black" stroke-width="2.25" stroke-miterlimit="14.3" stroke-linecap="round" stroke-linejoin="round"/>
<path d="M409.637 354.078C409.637 354.078 409.69 369.85 407.712 378.208C405.734 386.567 387.903 469.972 386.525 478.467C385.147 486.962 379.424 516.501 379.487 521.558C379.552 526.618 378.565 530.795 379.684 536.734C380.803 542.672 378.425 566.062 378.425 566.062M350.704 344.56C350.704 344.56 362.944 335.472 370.252 336.57C377.559 337.667 388.283 337.679 395.482 341.903C402.683 346.128 404.821 350.417 404.821 350.417L350.704 344.56ZM372.186 337.617L343.254 482.744L372.186 337.617ZM404.824 350.417L373.925 494.403L404.824 350.417ZM341.809 382.175C341.809 382.175 349.74 372.568 363.888 374.154C384.164 376.426 393.44 379.879 395.929 388.033L341.809 382.175ZM334.705 420.209C334.705 420.209 342.639 410.603 356.787 412.188C377.062 414.46 386.337 417.913 388.824 426.067L334.705 420.209ZM325.483 459.259C325.483 459.259 333.414 449.65 347.567 451.224C367.849 453.476 377.126 456.922 379.613 465.07L325.483 459.259ZM318.916 492.374C318.916 492.374 326.905 482.521 341.204 483.466C361.698 484.823 371.079 487.833 373.612 495.791L318.916 492.374Z" stroke="black" stroke-width="1.125" stroke-miterlimit="14.3" stroke-linecap="round" stroke-linejoin="round"/>
<path fill-rule="evenodd" clip-rule="evenodd" d="M404.639 304.515C404.639 304.515 401.04 302.403 395.222 301.659C389.404 300.914 385.172 301.49 385.172 301.49C385.172 301.49 393.176 292.978 397.585 294.333C401.995 295.689 404.498 305.112 404.639 304.516" fill="black"/>
<path d="M404.639 304.515C404.639 304.515 401.04 302.403 395.222 301.659C389.404 300.914 385.172 301.49 385.172 301.49C385.172 301.49 393.176 292.978 397.585 294.333C401.995 295.689 404.498 305.112 404.639 304.516L404.639 304.515Z" stroke="black" stroke-width="1.125" stroke-miterlimit="14.3" stroke-linecap="round" stroke-linejoin="round"/>
<path fill-rule="evenodd" clip-rule="evenodd" d="M389.444 298.09C389.444 298.09 392.274 298.129 395.032 298.468C397.79 298.806 402.796 300.303 402.796 300.303C402.796 300.303 402.206 294.801 397.656 294.04C393.104 293.281 389.673 298.461 389.444 298.09" fill="white"/>
<path d="M380.772 306.757C380.772 306.757 388.717 305.165 396.642 307.669C404.566 310.172 407.496 312.444 407.496 312.444M389.444 298.09C389.444 298.09 392.274 298.129 395.032 298.468C397.79 298.806 402.796 300.303 402.796 300.303C402.796 300.303 402.206 294.801 397.656 294.04C393.104 293.281 389.673 298.461 389.444 298.09L389.444 298.09Z" stroke="black" stroke-width="1.125" stroke-miterlimit="14.3" stroke-linecap="round" stroke-linejoin="round"/>
<path fill-rule="evenodd" clip-rule="evenodd" d="M372.517 318.982C372.517 318.982 379.234 314.581 386.717 317.612C394.199 320.643 396.323 323.664 396.323 323.664L398.203 325.056C398.203 325.056 398.495 330.483 397.072 329.832C395.648 329.18 390.24 325.381 390.594 323.886C390.947 322.392 388.384 319.896 383.307 318.695C378.229 317.495 372.887 318.756 372.517 318.982" fill="black"/>
<path d="M372.517 318.982C372.517 318.982 379.234 314.581 386.717 317.612C394.199 320.643 396.323 323.664 396.323 323.664L398.203 325.056C398.203 325.056 398.495 330.483 397.072 329.832C395.648 329.18 390.24 325.381 390.594 323.886C390.947 322.392 388.384 319.896 383.307 318.695C378.229 317.495 372.887 318.756 372.517 318.982L372.517 318.982Z" stroke="black" stroke-width="1.125" stroke-miterlimit="14.3" stroke-linecap="round" stroke-linejoin="round"/>
<path fill-rule="evenodd" clip-rule="evenodd" d="M376.002 330.745L380.978 331.043L380.06 334.924L375.084 334.626" fill="black"/>
<path d="M376.002 330.745L380.978 331.043L380.06 334.924L375.084 334.626L376.002 330.745L376.002 330.745Z" stroke="black" stroke-width="1.125" stroke-miterlimit="14.3" stroke-linecap="round" stroke-linejoin="round"/>
<path fill-rule="evenodd" clip-rule="evenodd" d="M367.658 330.035L372.634 330.333L371.715 334.214L366.742 333.916" fill="black"/>
<path d="M367.658 330.035L372.634 330.333L371.715 334.214L366.742 333.916L367.658 330.035L367.658 330.035Z" stroke="black" stroke-width="1.125" stroke-miterlimit="14.3" stroke-linecap="round" stroke-linejoin="round"/>
<path fill-rule="evenodd" clip-rule="evenodd" d="M340.614 574.395C340.614 574.395 342.494 566.904 344.56 562.839C346.563 558.893 352.379 554.865 352.379 554.865L356.337 555.369C359.382 555.757 361.015 557.51 361.015 557.51C361.015 557.51 363.242 561.332 364.347 565.356C365.405 569.2 364.205 578.632 364.205 578.632" fill="black"/>
<path d="M340.614 574.395C340.614 574.395 342.494 566.904 344.56 562.839C346.563 558.893 352.379 554.865 352.379 554.865L356.337 555.369C359.382 555.757 361.015 557.51 361.015 557.51C361.015 557.51 363.242 561.332 364.347 565.356C365.405 569.2 364.205 578.632 364.205 578.632" stroke="black" stroke-width="1.125" stroke-miterlimit="14.3" stroke-linecap="round" stroke-linejoin="round"/>
<path fill-rule="evenodd" clip-rule="evenodd" d="M313.074 574.906C313.074 574.906 314.796 567.945 316.675 564.164C318.497 560.495 323.764 556.738 323.764 556.738L327.338 557.192C330.087 557.542 331.557 559.166 331.557 559.166C331.557 559.166 333.556 562.705 334.542 566.438C335.486 570.005 334.372 578.765 334.372 578.765" fill="black"/>
<path d="M313.074 574.906C313.074 574.906 314.796 567.945 316.675 564.164C318.497 560.495 323.764 556.738 323.764 556.738L327.338 557.192C330.087 557.542 331.557 559.166 331.557 559.166C331.557 559.166 333.556 562.705 334.542 566.438C335.486 570.005 334.372 578.765 334.372 578.765" stroke="black" stroke-width="1.125" stroke-miterlimit="14.3" stroke-linecap="round" stroke-linejoin="round"/>
<path fill-rule="evenodd" clip-rule="evenodd" d="M334.542 581.694C333.392 586.556 327.375 589.3 321.11 587.819C314.845 586.338 310.693 581.191 311.843 576.329C312.993 571.467 319.01 568.726 325.274 570.206C331.539 571.687 335.692 576.834 334.542 581.694" fill="white"/>
<path d="M334.542 581.694C333.392 586.556 327.375 589.3 321.11 587.819C314.845 586.338 310.693 581.191 311.843 576.329C312.993 571.467 319.01 568.726 325.274 570.206C331.539 571.687 335.692 576.834 334.542 581.694V581.694Z" fill="#B8A1FA" stroke="black" stroke-width="1.125" stroke-miterlimit="14.3" stroke-linecap="round" stroke-linejoin="round"/>
<path fill-rule="evenodd" clip-rule="evenodd" d="M365.046 580.712C363.896 585.572 357.477 588.222 350.717 586.625C343.957 585.028 339.407 579.785 340.554 574.923C341.701 570.06 348.123 567.413 354.883 569.01C361.643 570.608 366.196 575.85 365.046 580.712Z" fill="#B8A1FA"/>
<path d="M365.046 580.712C363.896 585.572 357.477 588.222 350.717 586.625C343.957 585.028 339.407 579.785 340.554 574.923C341.701 570.06 348.123 567.413 354.883 569.01C361.643 570.608 366.196 575.85 365.046 580.712Z" stroke="black" stroke-width="1.125" stroke-miterlimit="14.3" stroke-linecap="round" stroke-linejoin="round"/>
<path fill-rule="evenodd" clip-rule="evenodd" d="M319.239 550.976C319.239 550.976 321.9 543.725 324.383 539.898C326.789 536.185 333 532.795 333 532.795L336.882 533.711C339.869 534.418 341.307 536.334 341.307 536.334C341.307 536.334 343.12 540.37 343.795 544.487C344.44 548.423 342.252 557.677 342.252 557.677" fill="black"/>
<path d="M319.239 550.976C319.239 550.976 321.9 543.725 324.383 539.898C326.789 536.185 333 532.795 333 532.795L336.882 533.711C339.869 534.418 341.307 536.334 341.307 536.334C341.307 536.334 343.12 540.37 343.795 544.487C344.44 548.423 342.252 557.677 342.252 557.677" stroke="black" stroke-width="1.125" stroke-miterlimit="14.3" stroke-linecap="round" stroke-linejoin="round"/>
<path fill-rule="evenodd" clip-rule="evenodd" d="M342.142 558.909C341.031 563.606 334.844 566.168 328.333 564.63C321.82 563.09 317.437 558.029 318.548 553.332C319.659 548.635 325.843 546.072 332.357 547.611C338.868 549.15 343.253 554.212 342.142 558.909" fill="white"/>
<path d="M342.142 558.909C341.031 563.606 334.844 566.168 328.333 564.629C321.82 563.09 317.437 558.029 318.548 553.332C319.659 548.635 325.843 546.072 332.357 547.611C338.868 549.15 343.253 554.212 342.142 558.909L342.142 558.909Z" fill="#B8A1FA" stroke="black" stroke-width="1.125" stroke-miterlimit="14.3" stroke-linecap="round" stroke-linejoin="round"/>
<path fill-rule="evenodd" clip-rule="evenodd" d="M310.988 552.49L312.407 541.163L320.671 535.551L302.035 527.68L301.252 518.982L297.468 525.654L294.482 542.285L297.197 550.806L310.988 552.49" fill="black"/>
<path d="M310.988 552.49L312.407 541.163L320.671 535.551L302.035 527.68L301.252 518.982L297.468 525.654L294.482 542.285L297.197 550.806L310.988 552.49L310.988 552.49Z" stroke="black" stroke-width="1.125" stroke-miterlimit="14.3" stroke-linecap="round" stroke-linejoin="round"/>
<path fill-rule="evenodd" clip-rule="evenodd" d="M337.797 529.833C337.797 529.833 345.667 533.9 346.138 535.902C346.608 537.905 347.308 545.634 347.308 545.634L347.106 553.152C347.106 553.152 352.927 548.541 359.374 551.956C365.818 555.368 366.127 562.064 366.127 562.064L368.463 564.19L375.757 564.023L367.59 542.549L369.25 532.853C369.25 532.853 365.531 527.247 355.393 526.111C345.255 524.975 337.797 529.832 337.797 529.832" fill="black"/>
<path d="M337.797 529.833C337.797 529.833 345.667 533.9 346.138 535.902C346.608 537.905 347.308 545.634 347.308 545.634L347.106 553.152C347.106 553.152 352.927 548.541 359.374 551.956C365.818 555.368 366.127 562.063 366.127 562.063L368.463 564.19L375.757 564.023L367.59 542.549L369.25 532.853C369.25 532.853 365.531 527.247 355.393 526.111C345.255 524.975 337.797 529.832 337.797 529.832L337.797 529.833Z" stroke="black" stroke-width="1.125" stroke-miterlimit="14.3" stroke-linecap="round" stroke-linejoin="round"/>
<path fill-rule="evenodd" clip-rule="evenodd" d="M325.879 534.894L308.847 523.461L309.783 516.275C310.679 516.487 336.947 521.435 336.947 521.435L336.844 519.205L310.577 514.072L312.855 502.361L338.859 490.683L336.807 487.361L306.9 500.462L304.467 525.419L325.879 534.894" fill="black"/>
<path d="M337.343 529.094C337.343 529.094 339.924 515.52 342.144 508.793C344.366 502.07 346.304 496.54 346.304 496.54C346.304 496.54 347.82 492.799 349.594 491.959C356.853 490.478 356.928 491.225 365.55 493.84C365.55 493.84 371.311 496.147 375.401 501.527C379.491 506.907 377.121 519.585 376.943 523.011C376.764 526.437 371.171 548.753 371.171 548.753M325.879 534.894L308.847 523.461L309.783 516.275C310.679 516.487 336.947 521.435 336.947 521.435L336.844 519.205L310.578 514.072L312.855 502.361L338.859 490.683L336.807 487.361L306.9 500.462L304.467 525.419L325.879 534.894L325.879 534.894Z" stroke="black" stroke-width="1.125" stroke-miterlimit="14.3" stroke-linecap="round" stroke-linejoin="round"/>
<path fill-rule="evenodd" clip-rule="evenodd" d="M334.737 586.781C334.737 586.781 336.864 584.449 337.062 582.287C337.258 580.127 337.463 567.25 337.463 567.25L339.397 567.078C339.397 567.078 336.431 579.616 338.325 582.273C340.219 584.929 344.49 586.882 344.49 586.882C344.49 586.882 334.28 586.044 334.737 586.782" fill="black"/>
<path d="M334.737 586.781C334.737 586.781 336.864 584.449 337.062 582.287C337.258 580.127 337.463 567.25 337.463 567.25L339.397 567.078C339.397 567.078 336.431 579.616 338.325 582.273C340.219 584.929 344.49 586.882 344.49 586.882C344.49 586.882 334.28 586.044 334.737 586.782L334.737 586.781Z" stroke="black" stroke-width="1.125" stroke-miterlimit="14.3" stroke-linecap="round" stroke-linejoin="round"/>
<path fill-rule="evenodd" clip-rule="evenodd" d="M292.523 546.546L273.229 545.453L271.159 558.203L267.505 557.655L269.889 546.238C268.924 546.327 234.554 542.299 234.554 542.299L237.48 532.589L294.89 533.866L292.914 542.225L292.524 546.545" fill="black"/>
<path d="M292.523 546.546L273.229 545.453L271.159 558.203L267.505 557.655L269.889 546.238C268.924 546.327 234.554 542.299 234.554 542.299L237.48 532.589L294.89 533.866L292.914 542.225L292.524 546.545L292.523 546.546Z" stroke="black" stroke-width="1.125" stroke-miterlimit="14.3" stroke-linecap="round" stroke-linejoin="round"/>
<path fill-rule="evenodd" clip-rule="evenodd" d="M379.322 534.283L467.633 530.259L469.609 539.238L429.097 543.846L428.594 556.649L426.519 557.42L425.46 544.563L380.256 549.006C380.256 549.006 380.489 544.017 380.386 541.785C380.283 539.556 379.322 534.284 379.322 534.284" fill="black"/>
<path d="M379.322 534.283L467.633 530.259L469.609 539.238L429.097 543.846L428.594 556.649L426.519 557.42L425.46 544.563L380.256 549.006C380.256 549.006 380.489 544.017 380.386 541.785C380.283 539.556 379.322 534.284 379.322 534.284L379.322 534.283Z" stroke="black" stroke-width="1.125" stroke-miterlimit="14.3" stroke-linecap="round" stroke-linejoin="round"/>
<path fill-rule="evenodd" clip-rule="evenodd" d="M468.984 543.196L462.893 520.951C462.893 520.951 462.703 517.755 461.263 515.838C459.822 513.921 454.926 509.296 454.926 509.296L413.387 468.903C413.387 468.903 408.772 463.084 408.11 457.884C407.447 452.686 407.168 379.179 407.168 379.179C407.168 379.179 409.462 372.155 409.445 370.892C409.428 369.627 410.646 365.815 410.646 365.815C410.646 365.815 413.492 453.798 416.913 459.334C420.333 464.871 462.744 509.57 465.026 513.26C467.308 516.949 468.985 543.195 468.985 543.195" fill="black"/>
<path d="M468.984 543.196L462.893 520.951C462.893 520.951 462.703 517.755 461.263 515.838C459.822 513.921 454.926 509.296 454.926 509.296L413.387 468.903C413.387 468.903 408.772 463.084 408.11 457.884C407.447 452.686 407.168 379.179 407.168 379.179C407.168 379.179 409.462 372.155 409.445 370.892C409.428 369.627 410.646 365.815 410.646 365.815C410.646 365.815 413.492 453.798 416.913 459.334C420.333 464.871 462.744 509.57 465.026 513.26C467.308 516.949 468.985 543.195 468.985 543.195L468.984 543.196Z" stroke="black" stroke-width="1.125" stroke-miterlimit="14.3" stroke-linecap="round" stroke-linejoin="round"/>
<path fill-rule="evenodd" clip-rule="evenodd" d="M271.141 516.267L291.23 515.42L288.446 527.185L268.357 528.032" fill="black"/>
<path d="M271.141 516.267L291.23 515.419L288.446 527.185L268.357 528.032L271.141 516.267Z" stroke="black" stroke-width="1.125" stroke-miterlimit="14.3" stroke-linecap="round" stroke-linejoin="round"/>
</g>
<defs>
<clipPath id="clip0_101_4">
<rect width="744.094" height="1052.36" fill="white" transform="translate(78.3794 0.0571289) rotate(9.24621)"/>
</clipPath>
</defs>
</svg>
